<svg id="icons" enable-background="new 0 0 64 64" height="512" viewBox="0 0 64 64" width="512" xmlns="http://www.w3.org/2000/svg"><path d="m1 58c0 .55.45 1 1 1h60c.55 0 1-.45 1-1v-49h-62z" fill="#e6e9ed"/><path d="m63 7v2h-62v-2c0-1.109.89-2 2-2h58c1.11 0 2 .891 2 2z" fill="#ccd1d9"/><path d="m4.006 5.998h-.01c-.552 0-.995.447-.995 1 0 .552.453 1 1.005 1 .553 0 1-.448 1-1 0-.553-.447-1-1-1z" fill="#e6e9ed"/><path d="m7.005 5.998h-.01c-.553 0-.995.447-.995 1 0 .552.452 1 1.005 1s1-.448 1-1c0-.553-.447-1-1-1z" fill="#e6e9ed"/><path d="m10.008 5.998h-.01c-.552 0-.995.447-.995 1 0 .552.453 1 1.005 1 .553 0 1-.448 1-1 0-.553-.447-1-1-1z" fill="#e6e9ed"/><path d="m44.003 33v-2.999-.001c0-.55-.45-1-1-1h-38.004c-.55 0-1 .45-1 1v9.99c0 .55.45 1 1 1h38.004c.55 0 1-.45 1-1v-.001-2.989l2-2z" fill="#fff"/><path d="m19.012 16.995v-2.999-.001c0-.55.45-1 1-1h38.004c.55 0 1 .45 1 1v9.99c0 .55-.45 1-1 1h-38.004c-.55 0-1-.45-1-1v-.001-2.989l-2-2z" fill="#fff"/><path d="m23 55.998h-18c-.553 0-1-.447-1-1s.447-1 1-1h18c.553 0 1 .447 1 1s-.447 1-1 1z" fill="#5d9cec"/><g fill="#e6e9ed"><path d="m51.997 18.493h-28c-.553 0-1-.447-1-1s.447-1 1-1h28c.553 0 1 .447 1 1s-.447 1-1 1z"/><path d="m37.997 21.493h-14c-.553 0-1-.447-1-1s.447-1 1-1h14c.553 0 1 .447 1 1s-.447 1-1 1z"/><path d="m37 34.496h-28c-.553 0-1-.447-1-1s.447-1 1-1h28c.553 0 1 .447 1 1s-.447 1-1 1z"/><path d="m23 37.496h-14c-.553 0-1-.447-1-1s.447-1 1-1h14c.553 0 1 .447 1 1s-.447 1-1 1z"/></g><path d="m60.03 55.998c-.553 0-1.005-.447-1.005-1s.442-1 .994-1h.011c.552 0 1 .447 1 1s-.448 1-1 1z" fill="#ccd1d9"/><path d="m57.03 55.998c-.553 0-1.005-.447-1.005-1s.442-1 .994-1h.011c.552 0 1 .447 1 1s-.448 1-1 1z" fill="#ccd1d9"/><path d="m54.03 55.998c-.553 0-1.005-.447-1.005-1s.442-1 .994-1h.011c.552 0 1 .447 1 1s-.448 1-1 1z" fill="#ccd1d9"/><path d="m59.995 44.99c.55 0 1 .45 1 1v5c0 .55-.45 1-1 1h-55c-.55 0-1-.45-1-1v-5c0-.55.45-1 1-1z" fill="#fff"/><path d="m54.995 37c1.74 0 3.22 1.11 3.77 2.67-1.029.83-2.34 1.33-3.77 1.33s-2.74-.5-3.77-1.33c.55-1.56 2.03-2.67 3.77-2.67z" fill="#a0d468"/><path d="m52.995 35c0 1.11.9 2 2 2-1.74 0-3.22 1.11-3.77 2.67-1.36-1.1-2.23-2.779-2.23-4.67 0-3.31 2.69-6 6-6 3.32 0 6 2.69 6 6 0 1.891-.87 3.57-2.23 4.67-.55-1.56-2.029-2.67-3.77-2.67 1.11 0 2-.89 2-2 0-1.1-.89-2-2-2-1.099 0-2 .9-2 2z" fill="#656d78"/><path d="m57.495 35.5c0 1.388-1.112 2.5-2.5 2.5-1.375 0-2.5-1.112-2.5-2.5 0-1.375 1.125-2.5 2.5-2.5 1.388 0 2.5 1.125 2.5 2.5z" fill="#eac6bb"/><path d="m10.004 20.99c1.74 0 3.22 1.11 3.77 2.67-1.029.83-2.34 1.33-3.77 1.33s-2.74-.5-3.77-1.33c.55-1.559 2.03-2.67 3.77-2.67z" fill="#5d9cec"/><path d="m8.004 18.99c0 1.11.9 2 2 2-1.74 0-3.22 1.11-3.77 2.67-1.36-1.1-2.23-2.779-2.23-4.67 0-3.31 2.69-6 6-6 3.32 0 6 2.69 6 6 0 1.891-.87 3.57-2.23 4.67-.55-1.56-2.029-2.67-3.77-2.67 1.11 0 2-.89 2-2 0-1.1-.89-2-2-2-1.1 0-2 .901-2 2z" fill="#656d78"/><path d="m12.504 19.49c0 1.388-1.112 2.5-2.5 2.5-1.375 0-2.5-1.112-2.5-2.5 0-1.375 1.125-2.5 2.5-2.5 1.388 0 2.5 1.125 2.5 2.5z" fill="#eac6bb"/></svg>