<?xml version="1.0"?>
<svg xmlns="http://www.w3.org/2000/svg" id="Filled_Expand_1" data-name="Filled Expand 1" viewBox="0 0 64 64" width="512" height="512"><defs><style>.cls-1{fill:#5b6172;}.cls-2{fill:#d99e54;}.cls-3{fill:#cf8e4a;}.cls-4{fill:#93e6f5;}.cls-5{fill:#78d7e6;}.cls-6{fill:#f0be97;}.cls-7{fill:#ffd7aa;}.cls-8{fill:#fff;}.cls-9{fill:#d7dcee;}.cls-10{fill:#e7edfa;}</style></defs><path class="cls-1" d="M57,1H7A2,2,0,0,0,5,3V39l27.9722,2L59,39V3A2,2,0,0,0,57,1Z"/><path class="cls-2" d="M32,6h0A11,11,0,0,1,43,17V35a0,0,0,0,1,0,0H21a0,0,0,0,1,0,0V17A11,11,0,0,1,32,6Z"/><path class="cls-3" d="M34,8A11,11,0,0,0,23,19V35H43V17a10.94,10.94,0,0,0-2.2941-6.7059A10.94,10.94,0,0,0,34,8Z"/><path class="cls-4" d="M44,39,32,40,20,39V36.8915a8.1741,8.1741,0,0,1,5.5892-7.7546L29,28h6l3.4108,1.1369A8.1741,8.1741,0,0,1,44,36.8915Z"/><path class="cls-5" d="M22,38.8915V39H44V36.8915a8.1741,8.1741,0,0,0-5.5892-7.7546L35,28H33.4L31,30l-3.4108,1.1369A8.1741,8.1741,0,0,0,22,38.8915Z"/><path class="cls-6" d="M29,24h6a0,0,0,0,1,0,0v5a3,3,0,0,1-3,3h0a3,3,0,0,1-3-3V24a0,0,0,0,1,0,0Z"/><path class="cls-7" d="M32,27h0a7.5,7.5,0,0,1-7.5-7.5V16.2188h0a13.96,13.96,0,0,0,9.9324-4.15L34.5,12l.0259.1311A5.07,5.07,0,0,0,39.5,16.2188h0V19.5A7.5,7.5,0,0,1,32,27Z"/><path class="cls-8" d="M48,10V20a2,2,0,0,0,2,2h2v4l4-4h5a2,2,0,0,0,2-2V10a2,2,0,0,0-2-2H50A2,2,0,0,0,48,10Z"/><path class="cls-9" d="M32,49,1,51v5a2,2,0,0,0,2,2H61a2,2,0,0,0,2-2V51Z"/><polygon class="cls-9" points="27 51 29 55 35 55 37 51 27 51"/><polygon class="cls-10" points="59 39 5 39 1 51 63 51 59 39"/><path class="cls-7" d="M57.3359,50.0274A2.0013,2.0013,0,0,0,55,52V49a2,2,0,0,0-4,0V47a2,2,0,0,0-4,0v2.1071a2.0746,2.0746,0,0,0-1.6641-2.08A2.0014,2.0014,0,0,0,43,49v7l-.6312-.9773A2.1406,2.1406,0,0,0,38.712,57.246L42,63H57l0-.0009a18.94,18.94,0,0,0,2-8.47V52.107A2.0744,2.0744,0,0,0,57.3359,50.0274Z"/><path class="cls-7" d="M25.1177,54.868a2.1405,2.1405,0,0,0-3.4865.1547L21,56V49a2.0014,2.0014,0,0,0-2.3359-1.9727A2.0746,2.0746,0,0,0,17,49.1071V47a2,2,0,0,0-4,0v2a2,2,0,0,0-4,0v3a2.0013,2.0013,0,0,0-2.3359-1.9726A2.0744,2.0744,0,0,0,5,52.107v2.4219a18.94,18.94,0,0,0,2,8.47L7,63H22l3.288-5.754A2.14,2.14,0,0,0,25.1177,54.868Z"/><path d="M61,22.75A2.7528,2.7528,0,0,0,63.75,20V10A2.7528,2.7528,0,0,0,61,7.25H59.75V3A2.7528,2.7528,0,0,0,57,.25H7A2.7528,2.7528,0,0,0,4.25,3V38.877L.2881,50.7627A.7291.7291,0,0,0,.2681,51H.25v5A2.7528,2.7528,0,0,0,3,58.75H4.7171a19.7143,19.7143,0,0,0,1.612,4.585A.749.749,0,0,0,7,63.75H22a.7508.7508,0,0,0,.6514-.3779L25.2927,58.75H38.7073l2.6413,4.6221A.7508.7508,0,0,0,42,63.75l15-.001a.75.75,0,0,0,.6709-.414,19.7143,19.7143,0,0,0,1.612-4.585H61A2.7528,2.7528,0,0,0,63.75,56V51h-.0181a.7291.7291,0,0,0-.02-.2373L59.75,38.877V22.75ZM62.25,10V20A1.2511,1.2511,0,0,1,61,21.25H56a.75.75,0,0,0-.53.22l-2.72,2.72V22a.75.75,0,0,0-.75-.75H50A1.2511,1.2511,0,0,1,48.75,20V10A1.2511,1.2511,0,0,1,50,8.75H61A1.2511,1.2511,0,0,1,62.25,10ZM3,57.25A1.2511,1.2511,0,0,1,1.75,56V51.75H4.2813a2.9149,2.9149,0,0,0-.0313.3574v2.4219A19.5783,19.5783,0,0,0,4.4487,57.25Zm18.5645,5L7.47,62.249a18.2914,18.2914,0,0,1-1.72-7.72V52.1074a1.3209,1.3209,0,0,1,1.0342-1.34A1.2518,1.2518,0,0,1,8.25,52v1a.75.75,0,0,0,1.5,0V49a1.25,1.25,0,0,1,2.5,0v4a.75.75,0,0,0,1.5,0V47a1.25,1.25,0,0,1,2.5,0v6a.75.75,0,0,0,1.5,0V49.1074a1.3209,1.3209,0,0,1,1.0342-1.34A1.2518,1.2518,0,0,1,20.25,49v7a.75.75,0,0,0,1.38.4062l.6308-.9765a1.376,1.376,0,0,1,1.1075-.6348,1.3586,1.3586,0,0,1,1.1582.5342,1.3863,1.3863,0,0,1,.11,1.5449Zm4.9721-10.5,1.7925,3.585A.749.749,0,0,0,29,55.75h6a.749.749,0,0,0,.6709-.415l1.7925-3.585H42.25v2.0762A2.8922,2.8922,0,0,0,37.8851,57.25h-11.77A2.8938,2.8938,0,0,0,21.75,53.8262V51.75Zm1.6769,0h7.573l-1.25,2.5H29.4639ZM58.25,54.5293A18.3023,18.3023,0,0,1,56.53,62.25H42.4355l-3.0722-5.376a1.3863,1.3863,0,0,1,.11-1.5449,1.363,1.363,0,0,1,1.1582-.5342,1.3775,1.3775,0,0,1,1.1075.6338l.6308.9775A.75.75,0,0,0,43.75,56V49a1.2518,1.2518,0,0,1,1.4658-1.2324,1.3209,1.3209,0,0,1,1.0342,1.34V53a.75.75,0,0,0,1.5,0V47a1.25,1.25,0,0,1,2.5,0v6a.75.75,0,0,0,1.5,0V49a1.25,1.25,0,0,1,2.5,0v4a.75.75,0,0,0,1.5,0V52a1.2518,1.2518,0,0,1,1.4658-1.2324,1.3209,1.3209,0,0,1,1.0342,1.34ZM61,57.25H59.5513a19.5783,19.5783,0,0,0,.1987-2.7207V52.1074a2.9149,2.9149,0,0,0-.0313-.3574H62.25V56A1.2511,1.2511,0,0,1,61,57.25Zm-1.9106-7a2.6707,2.6707,0,0,0-1.6333-.9629,2.773,2.773,0,0,0-1.7061.268V49A2.7528,2.7528,0,0,0,53,46.25a2.7147,2.7147,0,0,0-1.2917.3372,2.7378,2.7378,0,0,0-5.4164-.0014,2.5629,2.5629,0,0,0-.8358-.2987A2.7517,2.7517,0,0,0,42.25,49v1.25H21.75V49a2.7517,2.7517,0,0,0-3.2061-2.7129,2.5629,2.5629,0,0,0-.8358.2987,2.7378,2.7378,0,0,0-5.4164.0014A2.7147,2.7147,0,0,0,11,46.25,2.7528,2.7528,0,0,0,8.25,49v.5548a2.7657,2.7657,0,0,0-1.7061-.2677,2.6707,2.6707,0,0,0-1.6333.9629H2.041l3.5-10.5H58.459l3.5,10.5ZM42.25,30.6981a8.9107,8.9107,0,0,0-3.6016-2.2728L35.75,27.4594v-.62A8.2529,8.2529,0,0,0,40.25,19.5V16.2188a.75.75,0,0,0-.75-.75,4.3293,4.3293,0,0,1-4.2383-3.4859l-.0263-.1308a.75.75,0,0,0-.5547-.5367.8247.8247,0,0,0-.7813.2261A13.2976,13.2976,0,0,1,24.5,15.4688a.75.75,0,0,0-.75.75V19.5a8.2527,8.2527,0,0,0,4.5,7.3391v.62l-2.8984.9659A8.9107,8.9107,0,0,0,21.75,30.6981V17a10.25,10.25,0,0,1,20.5,0ZM32,26.25a6.7577,6.7577,0,0,1-6.75-6.75V16.9492a14.8542,14.8542,0,0,0,8.873-3.5737A5.8434,5.8434,0,0,0,38.75,16.92V19.5A6.7577,6.7577,0,0,1,32,26.25Zm-2.25,1.18a8.075,8.075,0,0,0,4.5,0V29a2.25,2.25,0,0,1-4.5,0Zm-9,9.4614a7.4152,7.4152,0,0,1,5.0762-7.0435l2.4278-.809a3.7462,3.7462,0,0,0,7.492,0l2.4278.809A7.4152,7.4152,0,0,1,43.25,36.8916V38.25H20.75ZM58.25,38.25H44.75V36.8916a8.9124,8.9124,0,0,0-1-4.1053V17a11.75,11.75,0,0,0-23.5,0V32.7863a8.9124,8.9124,0,0,0-1,4.1053V38.25H5.75V3A1.2511,1.2511,0,0,1,7,1.75H57A1.2511,1.2511,0,0,1,58.25,3V7.25H50A2.7528,2.7528,0,0,0,47.25,10V20A2.7528,2.7528,0,0,0,50,22.75h1.25V26a.75.75,0,0,0,1.28.53l3.78-3.78h1.94Z"/><path d="M12,42.25H10a.75.75,0,0,0,0,1.5h2a.75.75,0,0,0,0-1.5Z"/><path d="M18,42.25H16a.75.75,0,0,0,0,1.5h2a.75.75,0,0,0,0-1.5Z"/><path d="M24.75,43a.75.75,0,0,0-.75-.75H22a.75.75,0,0,0,0,1.5h2A.75.75,0,0,0,24.75,43Z"/><path d="M28,43.75h2a.75.75,0,0,0,0-1.5H28a.75.75,0,0,0,0,1.5Z"/><path d="M34,43.75h2a.75.75,0,0,0,0-1.5H34a.75.75,0,0,0,0,1.5Z"/><path d="M42,42.25H40a.75.75,0,0,0,0,1.5h2a.75.75,0,0,0,0-1.5Z"/><path d="M48,42.25H46a.75.75,0,0,0,0,1.5h2a.75.75,0,0,0,0-1.5Z"/><path d="M54,42.25H52a.75.75,0,0,0,0,1.5h2a.75.75,0,0,0,0-1.5Z"/><path d="M40,46.25H24a.75.75,0,0,0,0,1.5H40a.75.75,0,0,0,0-1.5Z"/><circle cx="35.5" cy="19" r="1"/><circle cx="28.5" cy="19" r="1"/><path d="M52.5,13.75h6a.75.75,0,0,0,0-1.5h-6a.75.75,0,0,0,0,1.5Z"/><path d="M52.5,17.75h6a.75.75,0,0,0,0-1.5h-6a.75.75,0,0,0,0,1.5Z"/></svg>
